<?xml version="1.0" standalone="no"?><!DOCTYPE svg PUBLIC "-//W3C//DTD SVG 1.1//EN" "http://www.w3.org/Graphics/SVG/1.1/DTD/svg11.dtd"><svg t="1706951518536" class="icon" viewBox="0 0 1024 1024" version="1.1" xmlns="http://www.w3.org/2000/svg" p-id="4102" xmlns:xlink="http://www.w3.org/1999/xlink" width="200" height="200"><path d="M568.917333 626.005333l16.213334 2.474667c5.674667-0.64 10.965333-1.109333 15.914666-1.578667 9.941333-0.938667 18.688-1.792 27.221334-3.498666 38.4-7.68 67.968-27.434667 83.2-64.768 10.325333-25.002667 11.690667-51.242667 8.533333-77.653334-4.864-41.088-23.68-72.96-64.085333-88.106666-39.125333-14.634667-78.336-9.301333-117.077334 2.56-6.186667 1.92-9.685333 6.954667-10.24 13.653333-1.152 13.141333-2.304 26.24-3.541333 39.338667-4.821333 51.328-9.557333 102.656-14.208 153.984-0.896 9.642667 2.304 14.506667 12.202667 16.213333 15.744 2.816 31.445333 5.205333 45.866666 7.381333z m21.589334-33.450666c-2.602667 0.170667-5.12 0.341333-7.381334 0.554666l-10.624-0.725333a2204.416 2204.416 0 0 0-15.36-0.981333c-5.76-0.256-8.149333-2.816-7.509333-8.96 1.536-15.36 2.901333-30.634667 4.266667-45.994667l2.048-22.912 2.858666-30.848 4.693334-51.114667v-0.170666c0.426667-4.565333 0.768-8.533333 6.4-9.770667 20.053333-4.352 40.234667-6.698667 60.458666-1.962667 28.032 6.570667 43.093333 25.813333 49.194667 52.906667 5.546667 24.618667 5.205333 49.152-4.565333 72.746667-11.776 28.416-36.096 40.021333-64.426667 45.141333-6.826667 1.28-13.781333 1.706667-20.053333 2.133333zM308.437333 606.208c23.765333 16.341333 50.986667 20.778667 79.189334 20.992 17.152 0.170667 34.005333-1.706667 49.92-8.448 25.216-10.666667 38.101333-30.421333 41.429333-56.917333 3.328-26.496-6.144-47.744-29.098667-61.568a242.346667 242.346667 0 0 0-38.4-18.218667c-8.405333-3.242667-16.981333-5.930667-25.514666-8.618667a367.957333 367.957333 0 0 1-29.781334-10.325333c-17.28-7.253333-18.517333-19.498667-5.034666-32.725333 17.237333-16.896 49.621333-18.176 69.888-2.133334 5.845333 4.608 10.837333 10.368 15.744 16.085334l1.365333 1.578666c6.144 7.125333 12.757333 8.021333 19.925333 1.962667 11.776-9.813333 11.690667-25.6-0.426666-36.693333-22.570667-20.650667-49.408-29.696-79.573334-26.197334-27.904 3.242667-51.626667 15.189333-66.986666 39.936-13.994667 22.613333-9.088 48.554667 13.397333 62.634667 10.24 6.442667 21.973333 10.666667 33.536 14.933333 2.133333 0.725333 4.181333 1.493333 6.229333 2.261334 8.234667 3.029333 16.512 5.802667 24.874667 8.533333 10.368 3.413333 20.736 6.869333 30.890667 10.837333 12.458667 4.906667 19.498667 14.677333 19.029333 28.885334-0.597333 16.512-7.637333 28.586667-23.808 33.792-27.946667 9.130667-83.2 6.4-102.058667-30.421334-3.84-7.296-10.368-8.021333-17.792-3.925333-13.44 7.466667-17.28 23.04-7.466666 34.986667 5.930667 7.168 12.8 13.482667 20.48 18.773333zM805.674667 410.538667c3.882667-1.962667 7.850667-4.181333 11.861333-6.485334 9.130667-5.12 18.730667-10.581333 29.013333-13.653333 30.592-9.130667 61.269333-7.509333 88.490667 11.136 21.162667 14.506667 30.293333 36.096 28.458667 61.354667-2.346667 32.085333-5.205333 64.170667-8.021334 96.256-1.408 15.786667-2.816 31.530667-4.138666 47.274666-1.408 16.725333-18.56 26.453333-33.066667 18.090667-2.688-1.536-4.778667-6.826667-4.565333-10.24 1.365333-21.12 3.157333-42.197333 4.992-63.232l0.768-9.002667 2.261333-25.216c1.749333-19.2 3.498667-38.4 4.693333-57.6 0.896-13.141333-4.693333-23.893333-16.298666-31.232-30.848-19.498667-71.68-9.728-94.208 22.485334-15.616 22.442667-21.205333 47.616-23.04 74.410666-1.365333 20.352-3.328 40.661333-5.333334 60.928l-2.944 30.890667c-0.512 5.973333-3.669333 9.002667-9.386666 9.386667a89.386667 89.386667 0 0 1-12.373334 0c-10.496-0.810667-14.890667-6.656-13.994666-17.066667 2.304-26.197333 4.48-52.48 6.656-78.677333l2.773333-32.853334 2.005333-24.234666c1.493333-18.474667 2.986667-36.906667 4.693334-55.338667 1.365333-15.018667 19.328-25.856 32.64-19.072 2.986667 1.536 4.778667 5.248 6.314666 8.362667 0.597333 1.28 1.152 2.432 1.749334 3.328zM95.445333 603.008c22.698667 18.346667 49.493333 23.893333 77.952 24.064 27.946667-0.128 54.570667-5.12 78.549334-20.650667a22.357333 22.357333 0 0 0 10.965333-23.893333 22.186667 22.186667 0 0 0-13.184-17.706667c-6.698667-2.901333-11.434667 1.194667-16.341333 5.546667l-0.298667 0.213333a72.149333 72.149333 0 0 1-17.706667 11.776c-22.613333 10.112-46.336 11.008-70.186666 5.504-23.466667-5.461333-38.954667-20.138667-44.032-43.904-7.893333-36.949333-0.981333-71.253333 23.168-100.565333 17.834667-21.76 41.813333-31.018667 69.205333-21.76 9.173333 3.072 17.322667 9.386667 25.344 15.616 2.261333 1.749333 4.522667 3.498667 6.741333 5.12 7.210667 5.376 13.525333 5.546667 19.2-1.450667a23.338667 23.338667 0 0 0-1.962666-32.682666 87.381333 87.381333 0 0 0-58.410667-23.552c-48.128-1.194667-82.901333 21.888-106.24 62.677333-16.341333 28.458667-21.376 59.477333-16.938667 92.032 3.456 25.472 13.909333 47.232 34.133334 63.573333z" fill="#bababa" p-id="4103"></path></svg>